<?xml version="1.0" encoding="utf-8"?>
<!-- Generator: Adobe Illustrator 18.0.0, SVG Export Plug-In . SVG Version: 6.00 Build 0)  -->
<!DOCTYPE svg PUBLIC "-//W3C//DTD SVG 1.1//EN" "http://www.w3.org/Graphics/SVG/1.1/DTD/svg11.dtd">
<svg version="1.1" xmlns="http://www.w3.org/2000/svg" xmlns:xlink="http://www.w3.org/1999/xlink" x="0px" y="0px"
	 viewBox="0 0 500 500" enable-background="new 0 0 500 500" xml:space="preserve">
<g id="_x33_d_Gold">
</g>
<g id="Gold_version">
	<g id="border">
	</g>
</g>
<g id="Metal_version">
	<rect fill="#19191A" width="500" height="500"/>
	<g id="XMLID_3_">
		<g>
			<path fill="#FFFFFF" d="M107.6,147.7L250,333.4l142.4-185.7c-2.6,0-5.2,0-7.8,0L250,323.3L115.3,147.6"/>
			<g id="XMLID_71_">
				<g id="XMLID_72_">
					<path fill="#FFFFFF" d="M249.6,351l-163-212.4l-6.2,0l6.5,9l162.8,227l170-236c-1.8,0-4.4,0-6.3,0L249.6,351z"/>
				</g>
			</g>
			<path id="XMLID_67_" display="none" fill="#FFFFFF" d="M191.8,249.8l57.1,78l60.2-78H191.8z M250.4,287.8l-10.6,8.3l4.7-12.7
				l-11.2-7.5l13.5,0.5l3.7-13l3.7,13l13.5-0.5l-11.2,7.5l4.7,12.7L250.4,287.8z"/>
			<g>
				<g>
					<polygon fill="#FFFFFF" points="268.5,244 250,301.2 231,244 					"/>
					<polygon fill="#FFFFFF" points="237.4,236.8 250,224.3 262.2,236.8 					"/>
					<polygon fill="#FFFFFF" points="223.4,244 238.6,289.7 207.2,244 					"/>
					<polygon fill="#FFFFFF" points="276,244 292.8,244 261,290.3 					"/>
					<polygon fill="#FFFFFF" points="289.9,236.8 272.2,236.8 256.5,220.7 271.1,220.7 					"/>
					<polygon fill="#FFFFFF" points="226.9,220.7 243.4,220.7 227.3,236.8 209.6,236.8 					"/>
				</g>
			</g>
			<text id="XMLID_66_" transform="matrix(1 0 0 1 180.4119 207.1513)" fill="#FFFFFF" font-family="'Forza-Book'" font-size="26">PRODUCTS</text>
			<text transform="matrix(1 0 0 1 143.2938 175.5655)" fill="#FFFFFF" font-family="'Forza-Medium'" font-size="56.7294">LUXURY</text>
		</g>
	</g>
</g>
<g id="Black_version">
</g>
</svg>
