<?xml version="1.0" encoding="utf-8"?>
<!-- Generator: Adobe Illustrator 18.0.0, SVG Export Plug-In . SVG Version: 6.00 Build 0)  -->
<!DOCTYPE svg PUBLIC "-//W3C//DTD SVG 1.1//EN" "http://www.w3.org/Graphics/SVG/1.1/DTD/svg11.dtd">
<svg version="1.1" xmlns="http://www.w3.org/2000/svg" xmlns:xlink="http://www.w3.org/1999/xlink" x="0px" y="0px"
	 viewBox="0 0 500 500" enable-background="new 0 0 500 500" xml:space="preserve">
<g id="THICK-VERSION">
</g>
<g id="THIC-VERSION-MOCK">
	<g id="Layer_3">
	</g>
</g>
<g id="SKINNY-VERSION">
</g>
<g id="FINAL-VERSION-USE-FOR-PRINT">
	<g>
		<g>
			<rect x="50.2" y="318.7" fill="none" width="399.7" height="25"/>
			
				<text transform="matrix(1 0 0 1 107.1052 342.7163)" fill="#221F1F" font-family="'Industry-Book'" font-size="32" letter-spacing="3">A  BETABOX  CO.</text>
		</g>
		<g>
			<rect x="87.3" y="157" fill="#221F1F" width="28.7" height="120"/>
			<rect x="36" y="157" fill="#221F1F" width="28.7" height="120"/>
			<rect x="16" y="177" fill="#221F1F" width="120" height="28.7"/>
			<rect x="16" y="228.3" fill="#221F1F" width="120" height="28.7"/>
		</g>
		<g>
			<path fill="#221F1F" d="M177.7,223.9h-18.9v-19.1h66.4v19.1h-18.6v53.3h-28.9V223.9z"/>
			<path fill="#221F1F" d="M301.2,250.3h-30.5v7.8h31.8l0,19.1h-59.4v-72.4h59.4v19.1h-31.8v7.3h30.5V250.3z"/>
			<path fill="#221F1F" d="M395.5,251.3c-2.3,17.6-14.7,27.7-37,27.7c-24.5,0-37.1-15.6-37.1-37.3c0-21.6,11.4-38.8,38.5-38.8
				c24,0,34.3,13.6,35.2,26.9h-28.4c-0.4-5.6-2.4-9-7.2-9c-6.8,0-8.3,7.7-8.3,19.9c0,10.9,1.2,20.2,8.2,20.2c5.6,0,7-4.6,7.7-9.6
				H395.5z"/>
			<path fill="#221F1F" d="M413,204.8h29v25.8h12.8v-25.8H484v72.4h-29.2v-27.5h-12.8v27.5h-29V204.8z"/>
		</g>
		<g>
			<path fill="#221F1F" d="M168.4,197l-9.6-40h12.3c2.7,15.3,3.7,22,4.1,28.3h0.2c1.6-8.7,4.1-18.9,6.1-28.3H192
				c1.7,8.1,4.4,19.2,5.8,27.8h0.2c1-8.3,3.7-21.7,4.6-27.8h11.3l-10.2,40h-12c-1.7-8.3-4.1-17.8-5.6-25.5H186
				c-1.4,7.6-3.9,17.8-5.6,25.5H168.4z"/>
			<path fill="#221F1F" d="M229.7,197.1v-13.9c0-0.5,0-0.9-0.4-1.5L215.6,157h13.3c2.6,5.6,5.4,12.1,7.3,16.7
				c1.6-4.4,5-11.6,7.3-16.7h12.3l-13.9,24.6c-0.2,0.3-0.3,0.7-0.3,1.5v13.9H229.7z"/>
			<path fill="#221F1F" d="M257.7,197.1v-40h14.1c4.2,9,10.3,21.2,12,26.2h0.2c-0.5-4.2-0.6-11.2-0.6-17.6V157h10.7v40h-13.4
				c-3.4-7.3-10.6-22.3-12.6-27.5h-0.1c0.3,3.8,0.4,11.5,0.4,18.5v9H257.7z"/>
			<path fill="#221F1F" d="M308.5,197.1l-9.6-40h12.3c2.7,15.3,3.7,22,4.1,28.3h0.2c1.6-8.7,4.1-18.9,6.1-28.3H332
				c1.7,8.1,4.4,19.2,5.8,27.8h0.2c1-8.3,3.7-21.7,4.6-27.8h11.3l-10.2,40h-12c-1.7-8.3-4.1-17.8-5.6-25.5h-0.1
				c-1.4,7.6-3.9,17.8-5.6,25.5H308.5z"/>
			<path fill="#221F1F" d="M394.9,177c0,11.3-6.8,20.8-20.5,20.8c-13.5,0-20-9.4-20-20.7c0-11.5,7.1-20.8,20.6-20.8
				C387.5,156.3,394.9,165.1,394.9,177z M366.4,176.9c0,7.3,2.4,12.4,8.3,12.4c6.1,0,8.1-5.4,8.1-12.2c0-7.3-2.2-12.4-8.3-12.4
				C368.9,164.8,366.4,169.5,366.4,176.9z"/>
			<path fill="#221F1F" d="M440.2,177c0,11.3-6.8,20.8-20.5,20.8c-13.5,0-20-9.4-20-20.7c0-11.5,7.1-20.8,20.6-20.8
				C432.9,156.3,440.2,165.1,440.2,177z M411.8,176.9c0,7.3,2.4,12.4,8.3,12.4c6.1,0,8.1-5.4,8.1-12.2c0-7.3-2.2-12.4-8.3-12.4
				C414.3,164.8,411.8,169.5,411.8,176.9z"/>
			<path fill="#221F1F" d="M446.7,157h17.2c12.7,0,20.1,8.1,20.1,19.6c0,11.6-7.1,20.5-20.3,20.5h-17V157z M458.4,188.6h4.5
				c6.3,0,9-4.5,9-12c0-6.6-2.4-11.1-8.8-11.1h-4.6V188.6z"/>
		</g>
	</g>
</g>
</svg>
