<?xml version="1.0" encoding="utf-8"?>
<!-- Generator: Adobe Illustrator 18.0.0, SVG Export Plug-In . SVG Version: 6.00 Build 0)  -->
<!DOCTYPE svg PUBLIC "-//W3C//DTD SVG 1.1//EN" "http://www.w3.org/Graphics/SVG/1.1/DTD/svg11.dtd">
<svg version="1.1" id="Layer_1" xmlns="http://www.w3.org/2000/svg" xmlns:xlink="http://www.w3.org/1999/xlink" x="0px" y="0px"
	 viewBox="0 0 128 128" enable-background="new 0 0 128 128" xml:space="preserve">
<path fill="#231F20" d="M107.9,62.9C107.9,62.9,107.9,62.9,107.9,62.9C107.9,62.9,107.9,62.9,107.9,62.9c0,0,0-0.1,0-0.1
	c0,0,0-0.1,0-0.2c0-0.1,0-0.2,0-0.4c-0.1-1.4-0.5-4.6-1-7c0-0.1,0-0.2-0.1-0.3c-1.4-7.7-3.9-14.4-7.8-19.7c-6-7-15.5-11.5-17.3-12.3
	c-6.8-2.8-12.9-3.8-18.3-3.7c0,0,0,0,0,0c-16,0-26.7,9.9-31.6,15.9c0,0,0,0,0,0c-2.1,2.6-3.2,4.4-3.2,4.4v0c-1.2,1.8-2,3.2-2,3.2
	c0,0,0,0,0,0c-3.4,5.8-6.1,12.4-6.4,20.5c0,0.7-0.1,1.4-0.1,2.2c0,4.1,0.5,8,1.2,11.6c1.2,5.4,3,9.7,5.8,13.5
	c1.8,2.5,3.7,4.8,5.9,6.8c6,5.1,13.1,8.6,22,10.6l1.7,0.3c1.8,0.3,3.9,0.5,5.8,0.7c0.7,0.1,1.5,0.1,2.1,0.1c4.7,0,9.2-0.7,12.9-1.6
	c4.4-1.4,8.9-3,12.4-5.4c4.6-2.8,8.3-6.8,11.2-11c3.1-5.6,5.4-11.9,6.3-19.5c0,0,0-0.1,0-0.1C108,67.6,108,64.7,107.9,62.9z"/>
<g>
	<path fill="#FFFFFF" d="M33.4,44.4c0,0-0.6,0.6-0.7-0.1c0-0.8,0.2-1.3,0.5-1.5c0.3-0.3,2.1-1.7,2.1-1.7s0.5-0.4,0.6,0.4
		c0,0.8-0.1,1.2-0.4,1.4c-0.3,0.2-0.6,0.4-0.6,0.4s0,4.8,0,6.4s0.1,5.5,0.1,5.5l1-4c0,0,0.3-1.4,0.8-1.5c0.5-0.1,0.9,1,1.2,1.8
		s1.1,3.2,1.1,3.2s-0.1-4.2-0.2-6.3c-0.1-2-0.3-6.6-0.3-7c0-0.4,0-0.7,0-0.7s-0.8,0.6-0.8-0.5s0.5-1.4,1.4-2
		c0.9-0.6,2.5-1.6,2.2-0.2c-0.3,1.4-0.4,1.5-0.8,1.8c-0.3,0.1-0.4,0.1-0.4,1c0,1,0.2,5.9,0.3,8.1s0.1,4.7,0.2,6.9s0.8,6.5-0.3,6.3
		c-1.1-0.2-2.1-4.2-2.1-4.2l-1.2-3.7c0,0-0.3-1.4-0.6,0.8c-0.3,2.2-0.9,4.4-1.3,5.6c-0.4,1.2-0.4,1.7-1.1,1.7s-0.8-0.5-0.7-3.5
		C33.4,55.7,33.4,44.4,33.4,44.4z"/>
	<path fill="#FFFFFF" d="M43.6,38.5l-0.4-0.9c0,0-1.1,0.8-1.3-0.3c-0.2-1.1,0.4-1.4,0.8-1.7c0.4-0.3,1.7-0.9,1.7-0.9s0.8-0.6,1,0.4
		c0.2,1,0,1.5-0.3,1.6s-0.4,0.2-0.4,0.2s1,2.2,1.3,3.3c0.4,1,0.9,2.8,1.1,3.2s0.1,0.8,0.2-0.1c0.2-0.9,0.3-2.2,0.5-3.6
		c0.2-1.3,0.6-4,0.6-4s-1,0.3-1-0.9c0-1.2,0.3-1.3,0.8-1.6c0.5-0.3,1.5-0.8,2-0.8s1,0.3,1,1.1s-0.3,1.2-1,1.6
		c-0.2,0.7-0.6,2.9-0.8,5c-0.3,2.1-0.9,6.7-1.3,10.2c-0.4,3.4-0.9,9.2-1,9.4c0,0.2,0.8,0.1,0.8,1.3s-0.4,1.2-1.1,1.2
		c-0.7,0.1-2.2,0.6-2.5-0.6c-0.3-1.2-0.2-1.7,1-2c0.3-0.4,0.7-6.7,0.7-6.7s0.6-3.6,0.7-4.6C47.1,47.3,43.6,38.5,43.6,38.5z"/>
	<path fill="#FFFFFF" d="M54.5,62.1c0,0-2,0-2-1.1c0-1.3,0.5-1.8,1.2-1.8c0.1-3.9-0.1-9.2-0.2-11.3c-0.1-2.1-0.2-12.6-0.2-12.9
		c0-0.2,0-0.7-0.4-0.5s-0.6-0.6-0.5-1.5c0.1-0.9,0.5-1.3,1.7-1.4c1.2-0.2,2.1-0.5,2,1c-0.1,1.4,0.3,1.5-0.8,1.7
		c0.4,2.4,0.1,1.6,0.6,3.6c0.5,2,1.3,5.2,1.8,7.7c0.6,2.5,1.3,6.3,1.3,6.3s0.4,2.4,0.2-1.5s-0.3-8.3-0.3-10.8c0-2.5,0-5.5,0-5.7
		c-0.3,0-1.3,0-1.2-1.4c0.1-1.4,1-1.4,1.9-1.5s2.3-0.5,2.3,0.8c0,1.2,0.3,1.9-0.4,2.1C61,33.8,61,33.8,61,33.8l-0.1,3.2
		c0,0,0.1,5.6,0.1,8.4c0,2.8,0.2,8.3,0.1,10.6C61,58.3,61,59.6,61,59.6s1.1-0.2,1,1.2s-0.4,1.5-1.9,1.5c-1.5,0-1.8-0.3-1.9-1.6
		c-0.1-1.3,0.4-1.4,1-1.4c-0.7-2.9-1.5-6.5-1.9-8.2c-0.4-1.7-1.3-5.5-1.7-7.1c-0.4-1.6-0.4-1.7-0.4-1.7s-0.5-3.1-0.1,2.1
		c0.4,5.2,0.6,10,0.5,11.3c-0.1,1.3-0.1,3.5-0.1,3.5s1-0.1,0.9,1.3C56.2,62.1,56.5,62.3,54.5,62.1z"/>
	<g>
		<path fill="#FFFFFF" d="M87.1,41.9c0-3.6-1.7-7.4-3.8-7.1c-2.1,0.3-2.5,4.2-2.5,4.2c-0.3,1.6-0.3,7.7-0.4,10
			c-0.1,2.3-0.3,3.2-0.3,7c-0.1,3.8,1.3,6.5,3.5,6.5c2.2,0,2.7-1.8,3.1-3.4c0.4-1.6,0.3-6.3,0.4-9.6C87.2,46.1,87.1,45.5,87.1,41.9z
			 M85.2,51.2c-0.2,3.4-0.3,5.3-0.5,6.6c-0.2,1.3-0.3,2.7-1.2,2.8s-1.4-1.7-1.4-4.3c0-2.6,0.2-7.9,0.3-9.8c0.1-1.9,0.3-5,0.3-5
			s0.3-3.6,1.2-3.8c0.9-0.2,1.2,1.6,1.3,3C85.3,42.1,85.3,47.8,85.2,51.2z"/>
	</g>
	<path fill="#FFFFFF" d="M59.8,71.4c0,0,0.1-0.3-0.2-0.4s-0.6,0-0.6-0.8s0-1.7,0.5-1.8c0.5-0.1,2-0.1,2.2-0.1s0.5,0.5,0.6,1.2
		c0.1,0.7-0.1,1.4-0.7,1.4c-0.4,0-0.4-0.1-0.4,0.2c0,0.2,0,1.9,0,3.8s-0.2,11-0.1,14.4c0,3.4,0,5,0,5s-0.1,0.1,0.1,0.2
		c0.2,0,1-0.2,1,0.7c0,0.9,0.4,1.9-0.7,1.9c-1.1,0-1.9,0.1-2,0.1s-0.7-0.1-0.7-1.6s0.8-1.1,0.8-1.1l0-6.7l0.1-9.7L59.8,71.4z"/>
	<path fill="#FFFFFF" d="M94.1,83.9c0.1-0.5,0.7-0.9,1-0.9c0.4,0,0.7,0.3,0.5,1c-0.1,0.7-0.9,1.5-1.4,0.7
		C94,84.3,94.1,83.9,94.1,83.9z"/>
	<path fill="#FFFFFF" d="M72.5,31.9c-0.7-0.5-2.4-0.6-3.1-0.6c-0.7,0-0.7,2.2-0.5,2.7c0.2,0.4,0.7,0.4,0.7,0.4l0,0c0,0,0.1,0,0.1,0
		c0.1,0.1,0.1,0.8,0.1,0.9c0,0.3,0,0.6,0,1c0,1.7-0.1,5.5-0.1,7.7s0.1,3.9,0,6.7s-0.3,0.9-0.3,0.9s0-0.2-0.2-1.3s-0.5-2.6-1-4.3
		c-0.4-1.8-1.3-1.6-1.8-0.2c-0.5,1.4-0.4,1.8-0.9,4.5c-0.5,2.6-0.4,0.6-0.4,0.6s0-2.2-0.1-3.8c0-1.6,0.1-6.7,0.1-8.7
		c0-1.9,0-4.7,0-4.7s0.2,0,0.5,0c0.9-0.1,0.7-0.7,0.8-1.8c0-1.1-0.7-1.1-1.9-1.2c-1.2-0.2-2,0-2.1,1.5c-0.1,1.5,0.9,1.3,0.9,1.3
		l-0.1,3.1c0,0,0,5.4,0,7.5c0,2.2,0,12.7-0.1,15.2c0,2.5,0.2,2.9,1,2.9c0.8,0,0.7-1.1,1.1-2.9c0.4-2.2,1.3-5.2,1.6-7.9
		c0.3-3,0.5-0.4,0.5-0.4s0.7,3.2,1.3,7c0.6,3.8,0.9,4.1,1.6,4.1c0.8,0,0.5-1,0.6-2.6c0.1-1.6,0-1.6,0.1-5.4c0.1-3.8,0.2-6.7,0.2-9.7
		c0-3,0.3-9,0.3-9.5c0-0.5,0.2-0.4,0.5-0.4c0.3,0.1,0.4,0,0.8-0.8S73.2,32.4,72.5,31.9z"/>
	<path fill="#FFFFFF" d="M76.3,32.2c-2.8-0.5-3.2,4.4-3.2,4.4s-0.2,5.9-0.3,8.9c-0.2,3-0.2,4-0.2,9.1c0,5.1,1.5,8,3.9,8
		c2.4,0,2.7-3.4,2.8-6.1c0.1-2.7,0.4-12.8,0.5-16.6C80,36.1,79.1,32.7,76.3,32.2z M77.7,48.1c-0.1,3.8-0.3,7.1-0.5,8.8
		c-0.2,1.6-0.3,3.3-1,3.4c-0.7,0.1-1.9-1-1.8-4.5c0.1-3.6,0.3-6.1,0.4-9.7c0-2.4,0.2-5.5,0.3-7.3c0,0,0.2-4.2,1.5-4.3
		c0.3,0,0.6,0.4,0.9,1.8C78,39,77.8,44.4,77.7,48.1z"/>
	<path fill="#FFFFFF" d="M94.7,48.8c-0.1-2.1-0.4-3.7-0.9-4.9c0-0.1,0-0.1-0.1-0.2c0,0,0,0,0-0.1c0-0.1-0.1-0.2-0.1-0.3
		c-1.2-3.1-3.8-4.9-5-5.4c-1.2-0.5-0.9,1.3-0.8,1.6c0.1,0.3,0.3,0.5,0.3,0.5c0,0,0,0,0,0c0.3,0.4,0.7,0.5,0.7,0.5s0,0.3,0,1.3
		c0,1-0.4,8.5-0.4,8.6l-0.5,9.9c0,0-1-0.4-1.1,0.9c-0.2,1.3,1,1.3,1,1.3s2.5,0,4.8-0.7C95.1,61.2,95,56,94.7,48.8z M91.7,60.3
		c-1.7,0.5-2,0.1-2,0.1s0.3-6.1,0.5-8.8c0.2-2.7,0.4-10,0.4-10s2.6,1.5,2.5,5.5c0,4,0,5.9,0,8.1S93.4,59.8,91.7,60.3z"/>
	<path fill="#FFFFFF" d="M42.8,79.4c0,0-2.3-0.6-2.9-0.7c-0.3-0.1-0.5-0.1-0.7-0.1c0,0,0,0,0,0c0,0-0.1,0-0.2,0.1c0,0,0,0,0,0
		c-0.1,0.1-0.2,0.4-0.2,0.9c0,0.1,0,0.2,0,0.3c0.1,1,1.1,0.9,1.5,1c0.3,0.1,1.4,0.3,1.7,0.4c0.3,0.1,0.5,0.2,0.7,0.2
		c0.6,0.2,0.4-0.3,0.5-1.1C43.4,79.6,42.8,79.4,42.8,79.4z"/>
	<path fill="#FFFFFF" d="M49.6,70.2c-0.2-1.6-0.8-2.7-2.3-2.7c-1.5,0-2.3,0.9-2.4,1.7c0,0.8-0.1,3.5-0.1,4.6c0,1.1,0,2.3,0,3.5
		c0.1,1.5,0.9,2,1.8,3.4c1,1.5,0.8,2.6,0.8,4.3c0,1.7,0,2,0.1,3.4c0,1.4-0.2,2.8-1.1,2.9c-0.9,0.1-0.9-2.5-1-3.5
		c0-0.9,0.1-3.4,0.1-4.2s0.1-1.8-0.7-1.8S44,82.7,44,83c0,0.3,0,1.2,0,1.2s-0.1,2.8,0,5.1c0.1,2.3,1.2,4.3,2.8,4.5s2-1,2.3-2.3
		c0.2-1.3,0.3-4.5,0.3-6.3c0-1.7-0.1-3.3-1.6-5.4c-1.5-2.1-1.3-2-1.3-3c0-0.8-0.1-3.1-0.1-3.9c0-0.1,0-0.3,0-0.5
		c0-0.3,0-0.6,0.1-1.3c0.3-1.8,0.7-1.7,0.7-1.7c0.8,0.1,0.9,2.6,0.9,2.7c0,1.1-0.1,2.4-0.1,3.3c0,1.2,0,2.6,1,2.5c1,0,0.8-1.3,0.8-3
		C49.9,73.3,49.8,71.8,49.6,70.2z"/>
	<path fill="#FFFFFF" d="M39.7,69c0-1-0.4-1.1-0.9-1.2c-0.6-0.1-1.4-0.1-2.5,0c-1.2,0.1-2.6,0-3.2,0c-0.6,0-0.6,0.4-0.6,1.4
		c-0.1,1,0.3,1.2,0.9,1.3c0.6,0.1,0.5-0.5,0.5-0.8c0-0.3,0.1-0.3,0.2-0.2s0.9,0,1.1,0.1c0.2,0,0.1,0.3,0.1,0.5
		c0,0.2-0.1,5.2-0.1,7.1c0,0-0.1,3.7-0.2,4.9c0,0.8,0,1.8,0,2.3c0,0,0,0-0.1,0c-0.1-0.1-0.2-0.2-0.3-0.2c0,0,0,0,0,0c0,0,0,0,0,0
		c-0.1-0.1-0.3-0.2-0.5,0.1c-0.5,1.1-0.1,1.5,0,1.6c0.1,0.1,1,0.7,1,0.7l0.3,0.3l0.9,0.7c0,0,0.7,0.5,0.8-0.4c0,0,0.2-0.6-0.3-1.2
		c-0.3-0.3-0.5-0.4-0.5-0.9l0,0c0-0.3,0-0.8,0-1.3c0-1.3,0.2-3.8,0.2-5.9c0-2.1,0.1-3.7,0.1-5c0-1.3,0-2.6,0-2.9
		c0-0.3,0.1-0.3,0.1-0.3s0.3,0,0.9,0c0.6,0,0.7,0.1,0.7,0.1s0,0,0,0.4c0,0.4,0.3,0.9,0.9,0.9C39.8,70.9,39.7,70,39.7,69z"/>
	<path fill="#FFFFFF" d="M77.4,68.5c-0.2-1-2.3-0.7-2.3-0.7s-3.4,0.1-4.3,0.2c-0.9,0-0.7,1.1-0.7,2.6c0,1.5,0.1,1.6,0.8,1.8
		c0.6,0.2,0.7-0.9,0.7-1.4c0-0.5,0.1-0.4,0.3-0.5c0.2-0.1,0.6,0,0.9,0c0.3,0,0.2,0.3,0.2,0.3v2l0.5,17.5c0,0,0,0,0.1,3.4
		c-1,0.7-0.6,0.4-0.6,1.8c-0.1,1.4,1.1,0.4,2.3,0s0.9-0.6,0.9-1.4c0-0.8-0.2-1-0.7-0.8c0,0-0.1,0-0.1,0c-0.2,0-0.2-0.2-0.2-0.3
		l-0.2-7.9l-0.3-11.7l-0.2-3.1c0,0,0.1,0,1.7-0.1c0,1.8,0.7,1.5,1.3,1.4C78,71.7,77.6,69.6,77.4,68.5z"/>
	<path fill="#FFFFFF" d="M93.3,71.9c-0.1-2.6-1.5-4.8-3.6-4.1s-1.9,5.4-1.9,5.5c0,0,0.2,2.7,0.2,3.9c0,1.2,0.3,8.5,0.3,9.2
		c0.1,0.8,1,2.4,2.5,2c2.6-0.8,2.7-5.1,2.7-5.1S93.4,74.4,93.3,71.9z M89.7,84c-0.1-2-0.3-7.4-0.3-8.3c0-0.9,0-3.5,0-3.5
		s0.2-2.8,1-2.9c0.8-0.1,1.2,1.5,1.3,2.9c0.1,1.2,0.2,9.7,0.3,11.9c0,0,0,2-1.1,2.6C90.3,86.9,89.8,86,89.7,84z"/>
	<path fill="#FFFFFF" d="M86.6,83.2c-0.9,0.3-0.8,1.3-0.8,1.3c0.3,3.7,0.2,5.4-0.9,6c-1.3,0.6-1.4-1.7-1.4-1.7l-0.2-6
		c0,0-0.6-7.2-0.2-10.7c0.3-3.5,1.4-1.4,1.7,0.5c0.4,2,2.1,3.8,2,0.2c0-1-0.2-1.7-0.4-2.3c0,0,0,0,0,0c-0.8-2.3-2.4-2.4-3-2.4
		c0,0-0.1,0-0.1,0c-0.1,0-0.1,0-0.1,0c-1.6,0.3-1.9,3.5-1.9,3.5c0.1,11.3,0.4,15.4,0.5,16.8v0c0.2,2.4,1,3.4,1.7,3.8
		c0,0,0.1,0,0.1,0.1c0.1,0,0.2,0.1,0.2,0.1c0.1,0,0.1,0,0.2,0.1c0.2,0.1,0.4,0.1,0.4,0.1c2.9,0.1,3-4.9,3-4.9S87.8,82.8,86.6,83.2z"
		/>
	<path fill="#FFFFFF" d="M71,94.5c-0.1-0.8-0.9-0.6-0.9-0.6s-0.2-0.7-0.7-2.6c-0.5-1.9-1.4-4.7-2.2-7.3c1.6-1.6,2.1-3.3,2.2-7.4
		c0.1-4.1-0.4-6.1-0.8-7.4c-0.4-1.3-2.5-1.5-3.9-1.4c-1.4,0.1-1.6,0.1-1.6,1.6c0,1.5,0.5,1,0.7,1.2c0.3,0.4,0.2,1.7,0.3,3.4
		c0,1.7-0.1,7.1-0.1,7.1L64,93c0,0,0,0,0,1.8c-0.6,0.2-0.8,0.1-0.8,1.5c0,0.2,0,0.4,0.1,0.5c0,0,0,0,0,0c0,0,0.1,0.3,0.5,0.5
		c0.1,0,0.1,0.1,0.2,0.1c0,0,0,0,0,0c0.5,0.1,1.5,0.2,2-0.1c0,0,0,0,0.1,0c0,0,0.1,0,0.1-0.1c0.1-0.1,0.1-0.1,0.1-0.2c0,0,0,0,0,0
		c0,0,0,0,0,0c0.1-0.4-0.1-0.9-0.1-1.3c0.1-0.8-0.8-0.8-0.8-0.8s0-8.8-0.1-9.4c0-0.6,0.4-0.4,0.4-0.4l2.7,9.2c0,0-1-0.2-0.7,1.4
		c0.3,1.6,0.9,1.2,2.3,1C71.5,96.4,71.1,95.2,71,94.5z M66.5,82c-0.6,0.4-1,0.5-1,0c0-0.5,0.1-6.2,0.1-6.2l-0.1-4.7
		c0-0.2,0-0.5,0.2-0.5c0,0,0.1,0,0.1,0c0.5,0,1.6-0.5,1.8,1.3c0.2,1.8,0.5,5.4,0.3,7C67.7,80.4,67.1,81.5,66.5,82z"/>
	<path fill="#FFFFFF" d="M58,94.7c-0.1-0.9-0.6-1-0.9-1s-0.2-0.2-0.2-0.2s0,0,0-0.4c0-0.4,0-3.6,0-5.8c0-2.2,0.2-7.1,0.2-8.8
		c0-1.7,0-4.2,0-5.3c0-0.9,0-1.7,0-2.2c0,0,0,0,0,0c0,0,0-0.3,0.3-0.3c0.3,0,0.4-0.1,0.4-0.2c0,0,0-0.1,0-0.1c0.1-1.2,0-1.5-0.1-1.9
		C57.7,68,56.9,68,56.9,68c0,0,0,0,0,0c-0.5-0.1-1.1,0-1.6,0.1c-0.7,0.2-0.6,0.9-0.5,1.7c0.1,0.8,0.5,0.8,0.7,0.8
		c0.2,0,0.2,0.1,0.1,0.3c0,0.2,0,2.3,0,4.5c0,2.1-0.1,3.7,0,4.5c0,0.6-0.2,0.5-0.3,0.5c-0.1,0-0.4,0-1.1,0c-0.7,0-1.2,0-1.4,0
		c-0.2,0-0.1-0.2-0.1-0.8c0.1-0.6,0-1.7,0.1-3c0-1.3,0.2-1.7,0.1-3.1c0-1.4,0-2.4,0-2.6c0-0.2,0.1-0.2,0.5-0.2
		c0.4,0,0.5-0.5,0.5-1.6c0-1-0.9-0.8-1.9-0.9s-1.2,0.2-1.5,1.1c-0.2,0.9,0.3,1.6,0.7,1.6c0.4,0,0.3,0.2,0.3,0.2s-0.1,0.5-0.1,1.7
		c0,1.2-0.1,3.9-0.2,7.2c-0.1,3.3-0.1,5.6-0.3,8.5c-0.1,2.3-0.1,3.6-0.1,4.1c0,0,0,0,0,0s0,0.4-0.2,0.2c-0.3-0.1-0.5-0.1-0.5,0.1
		c0,0.1-0.2,0.8,0,1.5c0,0,0,0,0,0.1c0,0.1,0,0.1,0,0.2c0,0,0,0,0,0.1c0.3,0.7,0.8,0.7,0.8,0.7c0.2,0,1,0.1,1.8,0.3
		c0.8,0.2,0.5-0.6,0.6-1.5c0.1-0.9-0.5-1-0.8-1c-0.3-0.1-0.2-0.2-0.2-0.2s0-2.5,0.1-5.1c0-2.7,0.1-4.3,0.1-4.8c0-0.1,0-0.1,0-0.2
		c0-0.2,0.2-0.1,0.2-0.1s0.1,0,0.6,0c0.4,0,1.3,0,1.7,0c0.4,0,0.4,0.2,0.4,0.3c0,0.1,0,0.2,0,0.4c0,0.5-0.2,3.1-0.2,5
		c-0.1,1.9,0,4.2,0.1,4.7c0,0.5,0,0.5-0.3,0.5c-0.3,0-0.5,0-0.5,0.4c-0.1,0.4,0,0.3,0,1.4c0,1.1,1,0.7,2.4,0.9S58,95.5,58,94.7z"/>
</g>
</svg>
